HIERARCHY
ROOT Hips
{
  OFFSET 0 0.240689 0
  CHANNELS 6 Xposition Yposition Zposition Zrotation Xrotation Yrotation
  JOINT Bip01_Spine0
  {
    OFFSET 0 -24.7459 49.7988
    CHANNELS 6 Xposition Yposition Zposition Zrotation Xrotation Yrotation
    JOINT Bip01_Pelvis
    {
      OFFSET 0 0 0
      CHANNELS 6 Xposition Yposition Zposition Zrotation Xrotation Yrotation
      JOINT Bip01_Spine0_Tail
      {
        OFFSET -6.47486 -3.86022 0
        CHANNELS 6 Xposition Yposition Zposition Zrotation Xrotation Yrotation
        JOINT Bip01_Spine0_Tail1
        {
          OFFSET 10.3837 -0.00825882 0
          CHANNELS 6 Xposition Yposition Zposition Zrotation Xrotation Yrotation
          JOINT Bip01_Spine0_Tail2
          {
            OFFSET 10.3837 -0.00826263 0
            CHANNELS 6 Xposition Yposition Zposition Zrotation Xrotation Yrotation
            JOINT Bip01_Spine0_Tail3
            {
              OFFSET 10.3837 -0.00825882 0
              CHANNELS 6 Xposition Yposition Zposition Zrotation Xrotation Yrotation
              JOINT Bip01_Spine0_Tail4
              {
                OFFSET 10.3837 -0.00826263 0
                CHANNELS 6 Xposition Yposition Zposition Zrotation Xrotation Yrotation
                End Site
                {
                  OFFSET 0 0 0
                }
              }
            }
          }
        }
      }
      JOINT Bip01_R_Thigh
      {
        OFFSET 0 -1.52588e-005 -8.75617
        CHANNELS 6 Xposition Yposition Zposition Zrotation Xrotation Yrotation
        JOINT Bip01_R_Calf
        {
          OFFSET 19.7638 0 0
          CHANNELS 6 Xposition Yposition Zposition Zrotation Xrotation Yrotation
          JOINT Bip01_R_Foot
          {
            OFFSET 18.6534 0 0
            CHANNELS 6 Xposition Yposition Zposition Zrotation Xrotation Yrotation
            JOINT Bip01_R_Toe0
            {
              OFFSET 5.09145 13.9567 0
              CHANNELS 6 Xposition Yposition Zposition Zrotation Xrotation Yrotation
              JOINT Bip01_R_Toe01
              {
                OFFSET 4.28803 0 0
                CHANNELS 6 Xposition Yposition Zposition Zrotation Xrotation Yrotation
                JOINT Bip01_R_Toe02
                {
                  OFFSET 3.85801 0 0
                  CHANNELS 6 Xposition Yposition Zposition Zrotation Xrotation Yrotation
                  End Site
                  {
                    OFFSET 0 0 0
                  }
                }
              }
            }
          }
        }
      }
      JOINT Bip01_L_Thigh
      {
        OFFSET 0 1.52588e-005 8.75617
        CHANNELS 6 Xposition Yposition Zposition Zrotation Xrotation Yrotation
        JOINT Bip01_L_Calf
        {
          OFFSET 19.7638 0 0
          CHANNELS 6 Xposition Yposition Zposition Zrotation Xrotation Yrotation
          JOINT Bip01_L_Foot
          {
            OFFSET 18.6534 0 0
            CHANNELS 6 Xposition Yposition Zposition Zrotation Xrotation Yrotation
            JOINT Bip01_L_Toe0
            {
              OFFSET 5.09144 13.9567 0
              CHANNELS 6 Xposition Yposition Zposition Zrotation Xrotation Yrotation
              JOINT Bip01_L_Toe01
              {
                OFFSET 4.28802 0 0
                CHANNELS 6 Xposition Yposition Zposition Zrotation Xrotation Yrotation
                JOINT Bip01_L_Toe02
                {
                  OFFSET 3.85801 0 0
                  CHANNELS 6 Xposition Yposition Zposition Zrotation Xrotation Yrotation
                  End Site
                  {
                    OFFSET 0 0 0
                  }
                }
              }
            }
          }
        }
      }
      JOINT Bip01_Spine
      {
        OFFSET 9.14835 -0.00640869 -1.1e-005
        CHANNELS 6 Xposition Yposition Zposition Zrotation Xrotation Yrotation
        JOINT Bip01_Spine1
        {
          OFFSET 8.04366 -0.00638199 0
          CHANNELS 6 Xposition Yposition Zposition Zrotation Xrotation Yrotation
          JOINT Bip01_Spine2
          {
            OFFSET 8.04367 -0.00639343 0
            CHANNELS 6 Xposition Yposition Zposition Zrotation Xrotation Yrotation
            JOINT Bip01_Spine3
            {
              OFFSET 8.04304 -0.00831222 0
              CHANNELS 6 Xposition Yposition Zposition Zrotation Xrotation Yrotation
              JOINT Bip01_Neck
              {
                OFFSET 10.6685 1.06813 0
                CHANNELS 6 Xposition Yposition Zposition Zrotation Xrotation Yrotation
                JOINT Bip01_R_Clavicle
                {
                  OFFSET -3.21661 -4.89635 -9.04802
                  CHANNELS 6 Xposition Yposition Zposition Zrotation Xrotation Yrotation
                  JOINT Bip01_R_UpperArm
                  {
                    OFFSET 19.0492 0 0
                    CHANNELS 6 Xposition Yposition Zposition Zrotation Xrotation Yrotation
                    JOINT Bip01_R_Forearm
                    {
                      OFFSET 10.3706 0 0
                      CHANNELS 6 Xposition Yposition Zposition Zrotation Xrotation Yrotation
                      JOINT Bip01_R_Hand
                      {
                        OFFSET 22.8632 0 0
                        CHANNELS 6 Xposition Yposition Zposition Zrotation Xrotation Yrotation
                        JOINT Bip01_R_Finger0
                        {
                          OFFSET 6.48259 0.103651 0.504496
                          CHANNELS 6 Xposition Yposition Zposition Zrotation Xrotation Yrotation
                          JOINT Bip01_R_Finger01
                          {
                            OFFSET 3.66847 0 0
                            CHANNELS 6 Xposition Yposition Zposition Zrotation Xrotation Yrotation
                            End Site
                            {
                              OFFSET 0 0 0
                            }
                          }
                        }
                      }
                    }
                  }
                }
                JOINT Bip01_L_Clavicle
                {
                  OFFSET -3.21661 -4.89641 9.04797
                  CHANNELS 6 Xposition Yposition Zposition Zrotation Xrotation Yrotation
                  JOINT Bip01_L_UpperArm
                  {
                    OFFSET 19.0492 0 0
                    CHANNELS 6 Xposition Yposition Zposition Zrotation Xrotation Yrotation
                    JOINT Bip01_L_Forearm
                    {
                      OFFSET 10.3706 0 0
                      CHANNELS 6 Xposition Yposition Zposition Zrotation Xrotation Yrotation
                      JOINT Bip01_L_Hand
                      {
                        OFFSET 22.8631 0 0
                        CHANNELS 6 Xposition Yposition Zposition Zrotation Xrotation Yrotation
                        JOINT Bip01_L_Finger0
                        {
                          OFFSET 6.48257 0.103655 -0.504492
                          CHANNELS 6 Xposition Yposition Zposition Zrotation Xrotation Yrotation
                          JOINT Bip01_L_Finger01
                          {
                            OFFSET 3.66844 0 0
                            CHANNELS 6 Xposition Yposition Zposition Zrotation Xrotation Yrotation
                            End Site
                            {
                              OFFSET 0 0 0
                            }
                          }
                        }
                      }
                    }
                  }
                }
                JOINT Bip01_Neck1
                {
                  OFFSET 7.52459 -0.00656509 0
                  CHANNELS 6 Xposition Yposition Zposition Zrotation Xrotation Yrotation
                  JOINT Bip01_Neck2
                  {
                    OFFSET 8.4783 -0.00588226 0
                    CHANNELS 6 Xposition Yposition Zposition Zrotation Xrotation Yrotation
                    JOINT Bip01_Head
                    {
                      OFFSET 8.41606 0 0
                      CHANNELS 6 Xposition Yposition Zposition Zrotation Xrotation Yrotation
                      JOINT EyesBlue
                      {
                        OFFSET 0 0 0
                        CHANNELS 6 Xposition Yposition Zposition Zrotation Xrotation Yrotation
                        JOINT EyesBlue_2
                        {
                          OFFSET 0 -0.500007 0
                          CHANNELS 6 Xposition Yposition Zposition Zrotation Xrotation Yrotation
                          End Site
                          {
                            OFFSET 0 0 0
                          }
                        }
                      }
                      JOINT Bip01_Head2_Eyeleds
                      {
                        OFFSET 6.52751 7.61746 2.2e-005
                        CHANNELS 6 Xposition Yposition Zposition Zrotation Xrotation Yrotation
                        End Site
                        {
                          OFFSET 0 0 0
                        }
                      }
                      JOINT Bip01_Head_Muzzle
                      {
                        OFFSET 2.88628 13.9448 3.88994
                        CHANNELS 6 Xposition Yposition Zposition Zrotation Xrotation Yrotation
                        End Site
                        {
                          OFFSET 0 0 0
                        }
                      }
                      JOINT Bip01_Head1_Jaw
                      {
                        OFFSET 0.271065 1.32405 0
                        CHANNELS 6 Xposition Yposition Zposition Zrotation Xrotation Yrotation
                        JOINT _Bip01_Head11_TungeControler
                        {
                          OFFSET 4.61616 5.82872 0
                          CHANNELS 6 Xposition Yposition Zposition Zrotation Xrotation Yrotation
                          JOINT _Bip01_Ponytail3_tunge
                          {
                            OFFSET 5.17785 2.98805 0
                            CHANNELS 6 Xposition Yposition Zposition Zrotation Xrotation Yrotation
                            JOINT Bip01_Ponytail31
                            {
                              OFFSET 5.57569 0 0
                              CHANNELS 6 Xposition Yposition Zposition Zrotation Xrotation Yrotation
                              JOINT Bip01_Ponytail32
                              {
                                OFFSET 2.93165 0 0
                                CHANNELS 6 Xposition Yposition Zposition Zrotation Xrotation Yrotation
                                JOINT Bip01_Ponytail3Nub
                                {
                                  OFFSET 3.30155 0 0
                                  CHANNELS 6 Xposition Yposition Zposition Zrotation Xrotation Yrotation
                                  End Site
                                  {
                                    OFFSET 0 0 0
                                  }
                                }
                              }
                            }
                          }
                        }
                        JOINT Bip01_Head_JawNub
                        {
                          OFFSET 15.5776 -0.000389099 0
                          CHANNELS 6 Xposition Yposition Zposition Zrotation Xrotation Yrotation
                          End Site
                          {
                            OFFSET 0 0 0
                          }
                        }
                      }
                      JOINT Bip01_Ponytail2
                      {
                        OFFSET 9.40334 1.03973 -6.51764
                        CHANNELS 6 Xposition Yposition Zposition Zrotation Xrotation Yrotation
                        JOINT Bip01_Ponytail21
                        {
                          OFFSET 2.77018 -0.00640106 1.33514e-005
                          CHANNELS 6 Xposition Yposition Zposition Zrotation Xrotation Yrotation
                          End Site
                          {
                            OFFSET 0 0 0
                          }
                        }
                      }
                      JOINT Bip01_Ponytail1
                      {
                        OFFSET 9.40368 1.03969 6.51768
                        CHANNELS 6 Xposition Yposition Zposition Zrotation Xrotation Yrotation
                        JOINT Bip01_Ponytail11
                        {
                          OFFSET 2.77018 -0.00640487 0
                          CHANNELS 6 Xposition Yposition Zposition Zrotation Xrotation Yrotation
                          End Site
                          {
                            OFFSET 0 0 0
                          }
                        }
                      }
                    }
                  }
                }
              }
            }
          }
        }
      }
    }
  }
}
MOTION
Frames:	4
Frame Time:	0.0333333
0 1.49439 -1.49439 -0 -90 -0 -1.21215 -28.7008 41.6738 90 2.48295e-005 94.057 0 0 0 -89.9987 0.00080122 -72.5557 -6.17913 -3.85871 -1.9416 158.223 -6.64388 20.3649 10.3816 -0.007957 0.000129 -11.0763 0.0041809 4.20256 10.3822 -0.008049 3.69998e-005 -6.80001 0.00475237 4.20296 10.3856 -0.007804 0.000128 16.8202 0.00369676 4.20264 10.3838 -0.008117 0.000133999 4.01601 0.00373938 4.20285 1.3e-005 -1.1e-005 -8.75617 -106.272 17.1857 157.045 19.7638 0 -7.10543e-015 -83.7406 -8.52666e-005 -0.00143725 18.6534 2.84217e-014 3e-006 -21.6991 -11.0853 1.74234 5.09144 13.9567 -5.5017e-007 97.2626 11.6251 5.87899 4.288 7e-006 -3e-006 74 0.00139047 -0.00105241 3.85799 -2.66454e-015 0 -23.5 0.000680874 0.001038 -1.5e-005 1.5e-005 8.75617 -126.75 13.0673 -152.382 19.7638 3.55271e-015 1.06581e-014 -87.598 -2.60946e-005 -0.00168426 18.6534 1e-006 -3.55271e-015 20.5322 -0.198262 1.11845 5.09144 13.9567 -2.91755e-006 87.1438 -10.359 -7.90988 4.288 -4.26326e-014 1e-006 42.0016 2.39155e-005 -1.37298e-006 3.85799 3.89466e-013 1e-006 -45.0006 0.000495211 0.00122317 8.72738 -0.006305 2.7424 -2.3437 0.897459 -12.8094 8.04433 -0.006252 1.7e-005 6.95152 -0.107311 -1.37479 8.04471 -0.006195 7.19998e-005 10.4252 -0.107518 -1.37387 8.04269 -0.008174 5.79996e-005 -5.85827 0.00208643 1.1237 10.6685 1.06813 0.000159072 -13.2809 2.55077e-005 0.144403 -3.19405 -4.8964 -9.05594 -166.106 -78.1463 108.845 19.0492 1e-006 1e-006 100.182 -1.33995 -107.512 10.3706 1.77636e-015 -1e-006 -135.994 0.000164146 -0.000368978 22.8631 2e-006 1e-006 17.9101 32.8306 -12.0858 6.48256 0.103653 0.504496 -60.7354 -5.07037 -14.6638 3.66843 1.68754e-014 3e-006 40.107 1.04715e-005 8.99291e-006 -3.23896 -4.89623 9.03992 -167.263 74.4485 -145.982 19.0492 1e-006 -1.42109e-014 106.455 -30.6758 111.004 10.3706 7.10543e-015 3.55271e-015 -85.7388 -0.000105556 -0.00283197 22.8631 3e-006 -3.35732e-013 11.2651 -8.77209 -1.58878 6.48255 0.103657 -0.504496 -28.8501 12.0857 9.77803 3.66843 -8.88179e-016 0 40.107 6.63618e-005 -4.83355e-005 7.52454 -0.006561 0.000107 -13.2809 2.03037e-005 0.144401 8.47823 -0.005756 7.10004e-005 28.798 0.000725903 0.14436 8.41605 3e-006 1.8674e-013 -109.419 2.68695 0.0316534 -3e-006 3e-006 -3e-006 -23.1098 1.37701e-015 90 5.74913e-008 -0.500007 7.72757e-008 3.16531e-008 90 90 0 0 0 -99.049 -7.01671e-015 -180 6.5155 13.6585 3.88994 -22.989 1.3702e-015 90 0 0 0 -85.3358 -0.000167847 -180 0 0 0 -162.289 0.000267604 -8.64408e-005 0 0 0 170.24 7.09336e-006 -5.20576e-007 0 0 0 1.83152 -2.79264e-006 3.23434e-007 0 0 0 -17.65 -8.15369e-006 -2.22003e-006 0 0 0 -26.1943 1.97613e-008 5.19285e-007 15.5776 -0.000396 -6.99804e-006 -9.93923e-017 1.86361e-017 1.98785e-016 9.40534 1.04103 -6.51536 62.6007 -47.7081 117.427 2.76784 -0.005071 -0.003318 -22.2085 31.2127 28.2515 9.40569 1.04099 6.51538 62.6008 47.7083 -117.427 2.76784 -0.005071 0.003318 -22.2085 -31.2127 -28.2513 
0 1.49439 -0.544657 -0 -90 -0 -1.16767 -28.7008 41.5618 89.9999 2.60147e-005 93.7598 0 0 0 -89.9998 0.000662324 -72.8956 -6.19039 -3.85871 -1.90496 157.734 -6.65883 19.7043 10.3816 -0.007957 0.000129 -11.5478 -0.0109676 3.91086 10.3822 -0.008049 3.69998e-005 -7.27069 -0.0106432 3.91122 10.3856 -0.007804 0.000128 18.4296 0.100631 3.90747 10.3838 -0.008117 0.000133999 3.54562 -0.0109722 3.9113 1.3e-005 -1.1e-005 -8.75617 -107.065 17.2372 157.318 19.7638 7.10543e-015 3.55271e-015 -85.2761 -4.67225e-005 -0.00143902 18.6534 1.42109e-014 3e-006 -19.5594 -10.8772 2.01338 5.09144 13.9567 -4.36607e-007 96.2764 11.5239 6.07687 4.288 7e-006 -3e-006 73.6198 0.00139826 -0.00104313 3.85799 6.21725e-015 0 -23.4994 0.000680258 0.00103766 -1.5e-005 1.5e-005 8.75617 -128.335 12.0485 -152.398 19.7638 -1.77636e-015 7.10543e-015 -88.1386 -3.74786e-005 -0.00168354 18.6534 1e-006 1.06581e-014 19.7742 -0.270993 1.3283 5.09144 13.9567 -2.92026e-006 86.394 -10.367 -7.93795 4.288 -2.66453e-014 1e-006 42.0007 2.29726e-005 -1.34691e-006 3.85799 3.73035e-013 1e-006 -45.0006 0.000495898 0.00122381 8.74325 -0.006305 2.69058 -2.45791 0.908212 -12.4806 8.04433 -0.006252 1.7e-005 6.84028 -0.106008 -1.38639 8.04471 -0.006195 7.19998e-005 10.3137 -0.106995 -1.3859 8.04269 -0.008174 5.79996e-005 -5.96904 0.00118898 1.1115 10.6685 1.06813 0.000159078 -12.9208 0.00482991 0.00549576 -3.24662 -4.87668 -9.04771 -167.116 -78.1755 110.012 19.0492 1e-006 1e-006 100.239 -1.86039 -106.816 10.3706 -3.55271e-015 -1e-006 -134.163 0.000156624 -0.00037009 22.8631 2e-006 1e-006 17.6779 32.7278 -11.452 6.48256 0.103653 0.504496 -60.7371 -5.06924 -14.6643 3.66843 7.90478e-014 3e-006 40.107 9.67996e-006 9.47442e-006 -3.24776 -4.87525 9.04811 -167.118 74.6293 -145.197 19.0492 1e-006 -3.55271e-014 103.75 -26.2369 109.286 10.3706 -1.77636e-014 3.55271e-015 -91.2882 3.58107e-005 -0.00283247 22.8631 3e-006 -1.91847e-013 12.4952 -10.1817 -0.45651 6.48255 0.103657 -0.504496 -30.6318 11.7795 10.1465 3.66843 -6.21725e-015 -1.06581e-014 40.107 9.18138e-005 -6.96364e-005 7.52454 -0.006561 0.000107 -12.9208 0.00482328 0.0054941 8.47823 -0.005756 7.10004e-005 29.1579 0.00540609 0.00474068 8.41605 3e-006 1.77858e-013 -109.099 2.30123 -0.0696621 -3e-006 3e-006 -3e-006 -23.1098 1.37701e-015 90 5.75941e-008 -0.500007 7.69591e-008 1.47277e-007 90 90 0 0 0 -99.68 -7.01671e-015 -180 6.48943 13.6615 3.88994 -22.989 1.3702e-015 90 0 0 0 -85.3358 1.52588e-005 -180 0 0 0 -162.289 9.26632e-005 -3.05335e-005 0 0 0 170.24 7.60045e-006 -4.99687e-007 0 0 0 1.83152 -3.12307e-006 3.35759e-007 0 0 0 -17.65 -8.36792e-006 -2.23671e-006 0 0 0 -26.1943 2.60505e-007 5.90707e-007 15.5776 -0.000396 -6.99931e-006 1.98785e-016 1.55301e-017 -0 9.40534 1.04103 -6.51536 62.6007 -47.7081 117.427 2.76784 -0.005071 -0.003318 -22.2085 31.2126 28.2515 9.40569 1.04099 6.51538 62.6007 47.7084 -117.427 2.76784 -0.005071 0.003318 -22.2085 -31.2126 -28.2513 
0 1.49439 0.405106 -0 -90 -0 -1.12291 -28.7008 41.4486 89.9998 3.68317e-005 93.4596 0 0 0 -90.0007 0.000505385 -73.2264 -6.20132 -3.85871 -1.8693 157.246 -6.6753 19.0528 10.3816 -0.007957 0.000129 -12.0191 -0.0257748 3.61952 10.3822 -0.008049 3.69999e-005 -7.74133 -0.0256863 3.61985 10.3856 -0.007804 0.000128 20.0381 0.196225 3.61234 10.3838 -0.008117 0.000133999 3.07526 -0.0253683 3.62007 1.3e-005 -1.1e-005 -8.75617 -107.855 17.2956 157.592 19.7638 -3.55271e-015 -1.06581e-014 -86.8039 -3.56177e-005 -0.00143823 18.6534 -1.42109e-014 3e-006 -17.4306 -10.6683 2.2813 5.09144 13.9567 -2.59688e-007 95.3947 11.4306 6.25232 4.288 7e-006 -3e-006 73.1878 0.00140695 -0.00103252 3.85799 1.77636e-015 0 -23.499 0.00067961 0.0010373 -1.5e-005 1.5e-005 8.75617 -129.924 11.0349 -152.403 19.7638 -3.55271e-015 -7.10543e-015 -88.6759 -2.1661e-005 -0.00168382 18.6534 1e-006 0 18.9838 -0.343202 1.53687 5.09144 13.9567 -2.92267e-006 85.6663 -10.3751 -7.96634 4.288 -2.13163e-014 1e-006 42.0001 2.20624e-005 -1.32198e-006 3.85799 3.59712e-013 1e-006 -45.0006 0.00049656 0.00122444 8.75868 -0.006305 2.64015 -2.57335 0.918314 -12.1602 8.04433 -0.006252 1.7e-005 6.72795 -0.104542 -1.3972 8.04471 -0.006195 7.19998e-005 10.201 -0.106249 -1.39711 8.04269 -0.008174 5.79996e-005 -6.08094 0.000231293 1.10011 10.6685 1.06813 0.000159084 -12.5572 0.00946412 -0.135791 -3.29983 -4.85671 -9.03932 -168.138 -78.2003 111.17 19.0492 1e-006 1e-006 100.3 -2.32779 -106.101 10.3706 -7.10543e-015 -1e-006 -132.297 0.000149019 -0.000371091 22.8631 2e-006 1e-006 17.4265 32.6237 -10.8101 6.48256 0.103653 0.504496 -60.7385 -5.06821 -14.6648 3.66843 1.30562e-013 3e-006 40.107 8.87844e-006 9.95677e-006 -3.25645 -4.85404 9.05644 -166.982 74.8066 -144.408 19.0492 1e-006 -4.26326e-014 101.207 -21.8511 107.471 10.3706 -1.77636e-015 7.10543e-015 -96.8388 0.000172196 -0.00283241 22.8631 3e-006 -8.88179e-014 13.8187 -11.5786 0.699678 6.48255 0.103657 -0.504496 -32.405 11.463 10.5037 3.66843 2.66454e-015 -1.42109e-014 40.107 0.000119876 -9.31849e-005 7.52454 -0.006561 0.000107 -12.5572 0.00945567 -0.135793 8.47823 -0.005756 7.10004e-005 29.5213 0.00991598 -0.13719 8.41605 3e-006 1.55653e-013 -108.776 1.91302 -0.169026 -3e-006 3e-006 -3e-006 -23.1098 1.37701e-015 90 5.771e-008 -0.500007 7.65266e-008 3.20868e-008 90 90 0 0 0 -100.311 -7.01671e-015 -180 6.46336 13.6645 3.88994 -22.989 1.3702e-015 90 0 0 0 -85.3358 7.6294e-005 -180 0 0 0 -162.289 3.27786e-005 -1.13637e-005 0 0 0 170.24 8.18541e-006 -4.75479e-007 0 0 0 1.83152 -3.52866e-006 3.49957e-007 0 0 0 -17.65 -8.45724e-006 -2.24836e-006 0 0 0 -26.1943 4.02276e-007 6.13976e-007 15.5776 -0.000396 -6.99974e-006 -3.97569e-016 6.21202e-018 -9.93923e-017 9.40534 1.04103 -6.51536 62.6007 -47.7081 117.427 2.76784 -0.005071 -0.003318 -22.2085 31.2126 28.2515 9.40569 1.04099 6.51538 62.6007 47.7084 -117.427 2.76784 -0.005071 0.003318 -22.2085 -31.2126 -28.2513 
0 1.49439 1.35482 -0 -90 -0 -1.07507 -28.7008 41.3229 89.9999 2.57955e-005 93.1261 0 0 0 -90.0007 0.000508369 -73.4513 -6.20851 -3.85871 -1.84495 156.77 -6.72002 18.5049 10.3816 -0.007957 0.000129 -12.4873 -0.0365474 3.33223 10.3822 -0.008049 3.69999e-005 -8.2098 -0.0365648 3.33284 10.3856 -0.007804 0.000128 21.6253 0.27567 3.31748 10.3838 -0.008117 0.000133999 2.60687 -0.0360303 3.33254 1.3e-005 -1.1e-005 -8.75617 -108.614 17.4361 157.881 19.7638 -3.55271e-015 1.06581e-014 -88.2425 -2.6806e-005 -0.00143784 18.6534 1.77636e-014 3e-006 -15.4048 -10.4525 2.51715 5.09144 13.9567 -5.6193e-008 95.6946 11.4627 6.19281 4.288 7e-006 -3e-006 72.1599 0.00142611 -0.00100706 3.85799 -1.15463e-014 0 -23.5001 0.000678967 0.00103697 -1.5e-005 1.5e-005 8.75617 -131.563 10.0722 -152.383 19.7638 7.10543e-015 -3.55271e-015 -89.1764 -6.93143e-006 -0.00168394 18.6534 1e-006 7.10543e-015 17.8143 -0.40958 1.73073 5.09144 13.9567 -2.92553e-006 85.191 -10.3841 -7.99843 4.288 -3.55271e-014 1e-006 42.0019 2.1308e-005 -1.28841e-006 3.85799 3.60156e-013 1e-006 -45.0004 0.000497119 0.00122494 8.76887 -0.006305 2.60574 -2.69889 0.934088 -11.9356 8.04433 -0.006252 1.7e-005 6.60291 -0.101634 -1.39865 8.04471 -0.006195 7.19997e-005 10.0762 -0.103439 -1.39866 8.04269 -0.008174 5.79995e-005 -6.20579 -0.00193254 1.09796 10.6685 1.06813 0.000159093 -12.1539 0.0121791 -0.304619 -3.3605 -4.83383 -9.02908 -169.341 -78.2283 112.169 19.0492 1e-006 1e-006 100.264 -2.65102 -105.305 10.3706 -7.10543e-015 -1e-006 -130.027 0.00013976 -0.00037209 22.8631 2e-006 1e-006 16.9207 32.5432 -10.0587 6.48256 0.103653 0.504496 -60.7361 -5.06887 -14.6646 3.66843 1.7053e-013 3e-006 40.107 7.95305e-006 1.04862e-005 -3.26383 -4.83035 9.06643 -166.751 74.9765 -143.776 19.0492 1e-006 -2.13163e-014 98.97 -16.625 106.392 10.3706 -1.77636e-015 5.32907e-015 -102.403 0.000312501 -0.00283176 22.8631 3e-006 -1.59872e-014 15.6244 -12.864 2.03102 6.48255 0.103657 -0.504496 -34.1519 11.14 10.8461 3.66843 -6.21725e-015 2.30926e-014 40.107 0.000146236 -0.000115171 7.52454 -0.006561 0.000107001 -12.1539 0.0121685 -0.304621 8.47823 -0.005756 7.10004e-005 29.9245 0.012375 -0.305859 8.41605 3e-006 1.34559e-013 -108.419 1.49633 -0.246477 -3e-006 3e-006 -3e-006 -23.1098 1.37701e-015 90 5.78206e-008 -0.500007 7.59151e-008 3.24498e-008 90 90 0 0 0 -100.942 -7.01671e-015 -180 6.43728 13.6675 3.88994 -22.989 1.3702e-015 90 0 0 0 -85.3358 9.15528e-005 -180 0 0 0 -162.289 1.02322e-005 -4.09836e-006 0 0 0 170.24 8.85381e-006 -4.40952e-007 0 0 0 1.83152 -4.05096e-006 3.64904e-007 0 0 0 -17.65 -8.37657e-006 -2.23172e-006 0 0 0 -26.1943 4.83218e-007 6.01444e-007 15.5776 -0.000396 -6.99991e-006 -7.95139e-016 -3.10601e-018 -9.93923e-017 9.40534 1.04103 -6.51536 62.6007 -47.7081 117.427 2.76784 -0.005071 -0.003318 -22.2085 31.2126 28.2515 9.40569 1.04099 6.51538 62.6007 47.7084 -117.427 2.76784 -0.005071 0.003318 -22.2085 -31.2126 -28.2513 
